mtllib materials.mtl
v 0.115 -0.05500007 -0.02833334
v 0.115 -0.05500007 0.05166668
v 0.115 0.02499986 0.05166668
v 0.115 0.02499986 -0.02833334
v -0.1149999 -0.05500007 -0.0283334
v -0.1149999 0.02499986 -0.02833337
v -0.1149999 0.02499986 0.05166668
v -0.115 -0.05500007 0.05166662
v -0.1 -0.04000008 -0.008333385
v -0.1 -0.04000008 -0.03833336
v -0.1 0.009999871 -0.03833336
v -0.1 0.009999871 -0.008333355
v 0.09999996 -0.03999996 -0.008333325
v 0.09999993 0.00999999 -0.008333325
v 0.09999996 0.00999999 -0.0383333
v 0.09999996 -0.03999996 -0.03833333
v -0.1 0.05499995 -0.01333344
v -0.1 0.05499995 0.03666657
v -0.1 0.004999995 0.03666663
v -0.1 0.004999876 -0.01333338
v 0.09999996 0.05499995 -0.01333338
v 0.09999996 0.004999995 -0.01333329
v 0.09999996 0.004999995 0.03666669
v 0.09999993 0.05500007 0.03666663
vn 1 -1.748456E-07 1.748455E-07
vn -1 1.748456E-07 -1.748455E-07
vn -1.748455E-07 -1 -1.748456E-07
vn 1.748455E-07 1 1.748456E-07
vn 1.748456E-07 1.748456E-07 -1
vn -1.748456E-07 -1.748456E-07 1
vn -1 -5.06102E-07 -1.800004E-07
vn 1 5.06102E-07 1.800004E-07
vn 5.061021E-07 -1 -4.290915E-07
vn -5.061021E-07 1 4.290915E-07
vn -1.800002E-07 -4.290916E-07 1
vn 1.800002E-07 4.290916E-07 -1
vn -1 -3.434116E-07 -3.536502E-07
vn 1 3.434116E-07 3.536502E-07
vn -3.434111E-07 1 -1.545065E-06
vn 3.434111E-07 -1 1.545065E-06
vn 3.536507E-07 -1.545064E-06 -1
vn -3.536507E-07 1.545064E-06 1
vt 0.1082266 0.06893483
vt 0.1147364 0.06428492
vt 0.1193863 0.07079478
vt 0.1128765 0.07544468
vt -0.1082266 0.06893482
vt -0.1128765 0.07544468
vt -0.1193863 0.07079478
vt -0.1147364 0.06428491
vt 0.0361225 -0.04157119
vt 0.02838675 -0.06323124
vt 0.03592069 -0.06592195
vt 0.04365643 -0.04426188
vt -0.0361225 -0.04157119
vt -0.04365643 -0.04426189
vt -0.03592069 -0.06592195
vt -0.02838676 -0.06323125
vt -0.1185116 0.02906889
vt -0.125667 0.0326466
vt -0.1359529 0.01207477
vt -0.1287975 0.008497069
vt 0.1185116 0.02906889
vt 0.1287975 0.008497065
vt 0.1359529 0.01207478
vt 0.125667 0.0326466
vt -0.1107259 0.06899291
vt -0.1082847 0.07073662
vt -0.1111909 0.07480529
vt -0.1136321 0.07306157
vt 0.110726 0.06899291
vt 0.1136321 0.07306157
vt 0.1111909 0.07480529
vt 0.1082847 0.07073663
vt 0.03077474 -0.06249123
vt 0.03750148 -0.0436564
vt 0.03467625 -0.04264738
vt 0.02794952 -0.06148222
vt -0.03077474 -0.06249123
vt -0.02794952 -0.06148222
vt -0.03467625 -0.04264738
vt -0.03750147 -0.0436564
vt 0.1294684 0.01050952
vt 0.1339405 0.01274558
vt 0.1249962 0.03063413
vt 0.1205241 0.02839807
vt -0.1294684 0.01050952
vt -0.1205241 0.02839807
vt -0.1249962 0.03063413
vt -0.1339405 0.01274558
vt -0.1158409 0.07701398
vt -0.1199095 0.07410778
vt -0.1170033 0.07003912
vt -0.1129347 0.0729453
vt 0.1158408 0.07701398
vt 0.1129347 0.07294531
vt 0.1170033 0.07003911
vt 0.1199095 0.07410779
vt -0.03030415 -0.06232314
vt -0.03703087 -0.0434883
vt -0.04173958 -0.04516998
vt -0.03501286 -0.06400482
vt 0.03030415 -0.06232314
vt 0.03501286 -0.06400482
vt 0.04173958 -0.04516998
vt 0.03703087 -0.0434883
vt -0.1379653 0.0147581
vt -0.1334932 0.01252202
vt -0.1245489 0.03041057
vt -0.129021 0.03264663
vt 0.1379653 0.0147581
vt 0.129021 0.03264664
vt 0.1245489 0.03041057
vt 0.1334932 0.01252203
o group223221093
g mesh223221093
usemtl mat23
f 4/4/1 3/3/1 2/2/1 1/1/1
f 8/8/2 7/7/2 6/6/2 5/5/2
f 2/12/3 8/11/3 5/10/3 1/9/3
f 6/16/4 7/15/4 3/14/4 4/13/4
f 5/20/5 6/19/5 4/18/5 1/17/5
f 3/24/6 7/23/6 8/22/6 2/21/6
o group628313417
g mesh628313417
usemtl mat2
f 12/28/7 11/27/7 10/26/7 9/25/7
f 16/32/8 15/31/8 14/30/8 13/29/8
f 10/36/9 16/35/9 13/34/9 9/33/9
f 14/40/10 15/39/10 11/38/10 12/37/10
f 13/44/11 14/43/11 12/42/11 9/41/11
f 11/48/12 15/47/12 16/46/12 10/45/12
o group492385700
g mesh492385700
usemtl mat8
f 20/52/13 19/51/13 18/50/13 17/49/13
f 24/56/14 23/55/14 22/54/14 21/53/14
f 18/60/15 24/59/15 21/58/15 17/57/15
f 22/64/16 23/63/16 19/62/16 20/61/16
f 21/68/17 22/67/17 20/66/17 17/65/17
f 19/72/18 23/71/18 24/70/18 18/69/18
